<mxfile host="app.diagrams.net" modified="2023-03-26T06:22:46.723Z" agent="Mozilla/5.0 (Windows NT 10.0; Win64; x64) AppleWebKit/537.36 (KHTML, like Gecko) Chrome/111.0.0.0 Safari/537.36" etag="IhQ_y2dye7RLH0__fCZy" version="21.1.1" type="github">
  <diagram name="Page-1" id="WMPTcS08lWb3K9hCGUmL">
    <mxGraphModel dx="1222" dy="571" grid="1" gridSize="10" guides="1" tooltips="1" connect="1" arrows="1" fold="1" page="1" pageScale="1" pageWidth="850" pageHeight="1100" math="0" shadow="0">
      <root>
        <mxCell id="0" />
        <mxCell id="1" parent="0" />
        <mxCell id="j7uFFj0VMb9B0_QQSw2X-1" value="" style="swimlane;startSize=0;swimlaneFillColor=#FFE3E3;" parent="1" vertex="1">
          <mxGeometry x="90" y="91" width="670" height="860" as="geometry" />
        </mxCell>
        <mxCell id="j7uFFj0VMb9B0_QQSw2X-5" value="Memasukan &lt;br&gt;barang untuk dijual&lt;span id=&quot;docs-internal-guid-a7f95895-7fff-6457-1440-3f78a3bd2c53&quot;&gt;&lt;/span&gt;" style="ellipse;whiteSpace=wrap;html=1;" parent="j7uFFj0VMb9B0_QQSw2X-1" vertex="1">
          <mxGeometry x="90" y="60" width="120" height="60" as="geometry" />
        </mxCell>
        <mxCell id="j7uFFj0VMb9B0_QQSw2X-7" value="Menerima Pembayaran&lt;span id=&quot;docs-internal-guid-a7f95895-7fff-6457-1440-3f78a3bd2c53&quot;&gt;&lt;/span&gt;" style="ellipse;whiteSpace=wrap;html=1;" parent="j7uFFj0VMb9B0_QQSw2X-1" vertex="1">
          <mxGeometry x="90" y="140" width="120" height="70" as="geometry" />
        </mxCell>
        <mxCell id="j7uFFj0VMb9B0_QQSw2X-9" value="Memilih barang sesuai kategori barang&lt;span id=&quot;docs-internal-guid-a7f95895-7fff-6457-1440-3f78a3bd2c53&quot;&gt;&lt;/span&gt;" style="ellipse;whiteSpace=wrap;html=1;" parent="j7uFFj0VMb9B0_QQSw2X-1" vertex="1">
          <mxGeometry x="100" y="450" width="120" height="80" as="geometry" />
        </mxCell>
        <mxCell id="j7uFFj0VMb9B0_QQSw2X-10" value="Memasukan kategori barang yang diinginkan&lt;span id=&quot;docs-internal-guid-a7f95895-7fff-6457-1440-3f78a3bd2c53&quot;&gt;&lt;/span&gt;" style="ellipse;whiteSpace=wrap;html=1;" parent="j7uFFj0VMb9B0_QQSw2X-1" vertex="1">
          <mxGeometry x="380" y="420" width="140" height="80" as="geometry" />
        </mxCell>
        <mxCell id="j7uFFj0VMb9B0_QQSw2X-11" value="Melakukan &lt;br&gt;pembelian barang&lt;span id=&quot;docs-internal-guid-a7f95895-7fff-6457-1440-3f78a3bd2c53&quot;&gt;&lt;/span&gt;" style="ellipse;whiteSpace=wrap;html=1;" parent="j7uFFj0VMb9B0_QQSw2X-1" vertex="1">
          <mxGeometry x="100" y="560" width="120" height="80" as="geometry" />
        </mxCell>
        <mxCell id="j7uFFj0VMb9B0_QQSw2X-12" value="&lt;span id=&quot;docs-internal-guid-32751787-7fff-f40b-053c-c122ccb1751d&quot;&gt;&lt;/span&gt;Mengajukan&lt;br&gt;pengembalian barang&amp;nbsp;" style="ellipse;whiteSpace=wrap;html=1;" parent="j7uFFj0VMb9B0_QQSw2X-1" vertex="1">
          <mxGeometry x="380" y="560" width="150" height="80" as="geometry" />
        </mxCell>
        <mxCell id="j7uFFj0VMb9B0_QQSw2X-13" value="Melakukan Pembayaran" style="ellipse;whiteSpace=wrap;html=1;" parent="j7uFFj0VMb9B0_QQSw2X-1" vertex="1">
          <mxGeometry x="100" y="670" width="120" height="70" as="geometry" />
        </mxCell>
        <mxCell id="j7uFFj0VMb9B0_QQSw2X-14" value="Menyetujui &lt;br&gt;pemasukan barang" style="ellipse;whiteSpace=wrap;html=1;" parent="j7uFFj0VMb9B0_QQSw2X-1" vertex="1">
          <mxGeometry x="330" y="97.5" width="150" height="75" as="geometry" />
        </mxCell>
        <mxCell id="j7uFFj0VMb9B0_QQSw2X-21" value="&lt;b&gt;&lt;font style=&quot;font-size: 16px;&quot;&gt;Use Case Diagram&amp;nbsp; Perangkat Lunak ABCShop&lt;/font&gt;&lt;/b&gt;" style="text;html=1;strokeColor=none;fillColor=none;align=center;verticalAlign=middle;whiteSpace=wrap;rounded=0;" parent="j7uFFj0VMb9B0_QQSw2X-1" vertex="1">
          <mxGeometry x="223" y="10" width="225" height="30" as="geometry" />
        </mxCell>
        <mxCell id="j7uFFj0VMb9B0_QQSw2X-22" value="&amp;lt;&amp;lt;include&amp;gt;&amp;gt;" style="endArrow=open;endSize=12;dashed=1;html=1;rounded=0;exitX=1;exitY=0;exitDx=0;exitDy=0;entryX=0;entryY=0.5;entryDx=0;entryDy=0;" parent="j7uFFj0VMb9B0_QQSw2X-1" source="j7uFFj0VMb9B0_QQSw2X-9" target="j7uFFj0VMb9B0_QQSw2X-10" edge="1">
          <mxGeometry width="160" relative="1" as="geometry">
            <mxPoint x="205" y="469.5" as="sourcePoint" />
            <mxPoint x="330" y="390" as="targetPoint" />
          </mxGeometry>
        </mxCell>
        <mxCell id="j7uFFj0VMb9B0_QQSw2X-24" value="&amp;lt;&amp;lt;extend&amp;gt;&amp;gt;" style="endArrow=open;endSize=12;dashed=1;html=1;rounded=0;exitX=0;exitY=0.5;exitDx=0;exitDy=0;entryX=1;entryY=0.5;entryDx=0;entryDy=0;" parent="j7uFFj0VMb9B0_QQSw2X-1" source="j7uFFj0VMb9B0_QQSw2X-12" target="j7uFFj0VMb9B0_QQSw2X-11" edge="1">
          <mxGeometry width="160" relative="1" as="geometry">
            <mxPoint x="200" y="600" as="sourcePoint" />
            <mxPoint x="320" y="550" as="targetPoint" />
          </mxGeometry>
        </mxCell>
        <mxCell id="j7uFFj0VMb9B0_QQSw2X-26" value="Membayar secara transfer" style="ellipse;whiteSpace=wrap;html=1;" parent="j7uFFj0VMb9B0_QQSw2X-1" vertex="1">
          <mxGeometry x="390" y="770" width="140" height="70" as="geometry" />
        </mxCell>
        <mxCell id="j7uFFj0VMb9B0_QQSw2X-27" value="&amp;lt;&amp;lt;extend&amp;gt;&amp;gt;" style="endArrow=open;endSize=12;dashed=1;html=1;rounded=0;exitX=0;exitY=0.333;exitDx=0;exitDy=0;entryX=0.5;entryY=1;entryDx=0;entryDy=0;exitPerimeter=0;" parent="j7uFFj0VMb9B0_QQSw2X-1" source="j7uFFj0VMb9B0_QQSw2X-26" target="j7uFFj0VMb9B0_QQSw2X-13" edge="1">
          <mxGeometry width="160" relative="1" as="geometry">
            <mxPoint x="329" y="634" as="sourcePoint" />
            <mxPoint x="191" y="620" as="targetPoint" />
          </mxGeometry>
        </mxCell>
        <mxCell id="qfWqqg0GBeRQuwNFtrHV-4" value="Membuat akun" style="ellipse;whiteSpace=wrap;html=1;" parent="j7uFFj0VMb9B0_QQSw2X-1" vertex="1">
          <mxGeometry x="100" y="330" width="120" height="70" as="geometry" />
        </mxCell>
        <mxCell id="qfWqqg0GBeRQuwNFtrHV-7" value="Membayar secara tunai" style="ellipse;whiteSpace=wrap;html=1;" parent="j7uFFj0VMb9B0_QQSw2X-1" vertex="1">
          <mxGeometry x="390" y="670" width="140" height="70" as="geometry" />
        </mxCell>
        <mxCell id="qfWqqg0GBeRQuwNFtrHV-9" value="&amp;lt;&amp;lt;extend&amp;gt;&amp;gt;" style="endArrow=open;endSize=12;dashed=1;html=1;rounded=0;exitX=0;exitY=0.5;exitDx=0;exitDy=0;entryX=1;entryY=0.5;entryDx=0;entryDy=0;" parent="j7uFFj0VMb9B0_QQSw2X-1" source="qfWqqg0GBeRQuwNFtrHV-7" target="j7uFFj0VMb9B0_QQSw2X-13" edge="1">
          <mxGeometry width="160" relative="1" as="geometry">
            <mxPoint x="385" y="642" as="sourcePoint" />
            <mxPoint x="205" y="650" as="targetPoint" />
          </mxGeometry>
        </mxCell>
        <mxCell id="_J6b6kvtOCf_ExvjXbg1-1" value="Mengantarkan barang &lt;br&gt;yang dipesan" style="ellipse;whiteSpace=wrap;html=1;" parent="j7uFFj0VMb9B0_QQSw2X-1" vertex="1">
          <mxGeometry x="430" y="200" width="140" height="75" as="geometry" />
        </mxCell>
        <mxCell id="TZj0bOSMbORoZklCW9Lz-1" value="Mengkonfirmasi pengajuan &lt;br&gt;pengembalian barang" style="ellipse;whiteSpace=wrap;html=1;" vertex="1" parent="j7uFFj0VMb9B0_QQSw2X-1">
          <mxGeometry x="80" y="220" width="140" height="70" as="geometry" />
        </mxCell>
        <mxCell id="BSiaUf2qVjrhFa25R_2A-1" value="Mengkonfirmasi &lt;br&gt;pesanan telah &lt;br&gt;diantarkan" style="ellipse;whiteSpace=wrap;html=1;" vertex="1" parent="j7uFFj0VMb9B0_QQSw2X-1">
          <mxGeometry x="430" y="299" width="140" height="60" as="geometry" />
        </mxCell>
        <mxCell id="j7uFFj0VMb9B0_QQSw2X-2" value="Penjual" style="shape=umlActor;verticalLabelPosition=bottom;verticalAlign=top;html=1;outlineConnect=0;fillColor=#d5e8d4;strokeColor=#82b366;" parent="1" vertex="1">
          <mxGeometry x="20" y="211" width="50" height="90" as="geometry" />
        </mxCell>
        <mxCell id="j7uFFj0VMb9B0_QQSw2X-3" value="Pembeli" style="shape=umlActor;verticalLabelPosition=bottom;verticalAlign=top;html=1;outlineConnect=0;fillColor=#ffe6cc;strokeColor=#d79b00;" parent="1" vertex="1">
          <mxGeometry x="20" y="601" width="50" height="90" as="geometry" />
        </mxCell>
        <mxCell id="j7uFFj0VMb9B0_QQSw2X-4" value="Admin Kantor" style="shape=umlActor;verticalLabelPosition=bottom;verticalAlign=top;html=1;outlineConnect=0;fillColor=#dae8fc;strokeColor=#6c8ebf;" parent="1" vertex="1">
          <mxGeometry x="780" y="181" width="50" height="90" as="geometry" />
        </mxCell>
        <mxCell id="j7uFFj0VMb9B0_QQSw2X-15" value="" style="endArrow=none;html=1;rounded=0;exitX=0.5;exitY=0.5;exitDx=0;exitDy=0;exitPerimeter=0;entryX=0;entryY=0.5;entryDx=0;entryDy=0;" parent="1" source="j7uFFj0VMb9B0_QQSw2X-2" target="j7uFFj0VMb9B0_QQSw2X-5" edge="1">
          <mxGeometry width="50" height="50" relative="1" as="geometry">
            <mxPoint x="160" y="231" as="sourcePoint" />
            <mxPoint x="210" y="181" as="targetPoint" />
          </mxGeometry>
        </mxCell>
        <mxCell id="j7uFFj0VMb9B0_QQSw2X-16" value="" style="endArrow=none;html=1;rounded=0;entryX=0;entryY=0.5;entryDx=0;entryDy=0;exitX=0.5;exitY=0.5;exitDx=0;exitDy=0;exitPerimeter=0;" parent="1" source="j7uFFj0VMb9B0_QQSw2X-2" target="j7uFFj0VMb9B0_QQSw2X-7" edge="1">
          <mxGeometry width="50" height="50" relative="1" as="geometry">
            <mxPoint x="160" y="281" as="sourcePoint" />
            <mxPoint x="210" y="231" as="targetPoint" />
          </mxGeometry>
        </mxCell>
        <mxCell id="j7uFFj0VMb9B0_QQSw2X-17" value="" style="endArrow=none;html=1;rounded=0;exitX=0.5;exitY=0.5;exitDx=0;exitDy=0;exitPerimeter=0;entryX=0;entryY=0.5;entryDx=0;entryDy=0;" parent="1" source="j7uFFj0VMb9B0_QQSw2X-3" target="j7uFFj0VMb9B0_QQSw2X-9" edge="1">
          <mxGeometry width="50" height="50" relative="1" as="geometry">
            <mxPoint x="135" y="641" as="sourcePoint" />
            <mxPoint x="185" y="591" as="targetPoint" />
          </mxGeometry>
        </mxCell>
        <mxCell id="j7uFFj0VMb9B0_QQSw2X-18" value="" style="endArrow=none;html=1;rounded=0;exitX=0.5;exitY=0.5;exitDx=0;exitDy=0;exitPerimeter=0;entryX=0;entryY=0.5;entryDx=0;entryDy=0;" parent="1" source="j7uFFj0VMb9B0_QQSw2X-3" target="j7uFFj0VMb9B0_QQSw2X-11" edge="1">
          <mxGeometry width="50" height="50" relative="1" as="geometry">
            <mxPoint x="110" y="661" as="sourcePoint" />
            <mxPoint x="245" y="571" as="targetPoint" />
          </mxGeometry>
        </mxCell>
        <mxCell id="j7uFFj0VMb9B0_QQSw2X-19" value="" style="endArrow=none;html=1;rounded=0;entryX=0;entryY=0.5;entryDx=0;entryDy=0;exitX=0.5;exitY=0.5;exitDx=0;exitDy=0;exitPerimeter=0;" parent="1" source="j7uFFj0VMb9B0_QQSw2X-3" target="j7uFFj0VMb9B0_QQSw2X-13" edge="1">
          <mxGeometry width="50" height="50" relative="1" as="geometry">
            <mxPoint x="100" y="621" as="sourcePoint" />
            <mxPoint x="255" y="581" as="targetPoint" />
          </mxGeometry>
        </mxCell>
        <mxCell id="j7uFFj0VMb9B0_QQSw2X-20" value="" style="endArrow=none;html=1;rounded=0;entryX=0.5;entryY=0.5;entryDx=0;entryDy=0;entryPerimeter=0;exitX=1;exitY=0.5;exitDx=0;exitDy=0;" parent="1" source="j7uFFj0VMb9B0_QQSw2X-14" target="j7uFFj0VMb9B0_QQSw2X-4" edge="1">
          <mxGeometry width="50" height="50" relative="1" as="geometry">
            <mxPoint x="670" y="301" as="sourcePoint" />
            <mxPoint x="720" y="251" as="targetPoint" />
          </mxGeometry>
        </mxCell>
        <mxCell id="qfWqqg0GBeRQuwNFtrHV-5" value="" style="endArrow=none;html=1;rounded=0;entryX=0;entryY=0.5;entryDx=0;entryDy=0;exitX=0.5;exitY=0.5;exitDx=0;exitDy=0;exitPerimeter=0;" parent="1" source="j7uFFj0VMb9B0_QQSw2X-3" target="qfWqqg0GBeRQuwNFtrHV-4" edge="1">
          <mxGeometry width="50" height="50" relative="1" as="geometry">
            <mxPoint x="110" y="631" as="sourcePoint" />
            <mxPoint x="245" y="781" as="targetPoint" />
          </mxGeometry>
        </mxCell>
        <mxCell id="qfWqqg0GBeRQuwNFtrHV-317" value="&lt;h1 style=&quot;border-color: var(--border-color); color: rgb(0, 0, 0); font-variant-ligatures: normal; font-variant-caps: normal; letter-spacing: normal; orphans: 2; text-align: center; text-indent: 0px; text-transform: none; widows: 2; word-spacing: 0px; -webkit-text-stroke-width: 0px; background-color: rgb(251, 251, 251);&quot;&gt;&lt;span style=&quot;border-color: var(--border-color);&quot;&gt;ACTIVITY DIAGRAM PERANGKAT LUNAK ABCSHOP&lt;/span&gt;&lt;/h1&gt;" style="text;whiteSpace=wrap;html=1;fontStyle=1;fontFamily=Helvetica;spacing=0;verticalAlign=middle;" parent="1" vertex="1">
          <mxGeometry x="240" y="1130" width="370" height="70" as="geometry" />
        </mxCell>
        <mxCell id="_J6b6kvtOCf_ExvjXbg1-3" value="Kurir" style="shape=umlActor;verticalLabelPosition=bottom;verticalAlign=top;html=1;outlineConnect=0;fillColor=#f8cecc;strokeColor=#b85450;" parent="1" vertex="1">
          <mxGeometry x="780" y="331" width="50" height="90" as="geometry" />
        </mxCell>
        <mxCell id="_J6b6kvtOCf_ExvjXbg1-5" value="" style="endArrow=none;html=1;rounded=0;entryX=0.5;entryY=0.5;entryDx=0;entryDy=0;entryPerimeter=0;exitX=1;exitY=0.5;exitDx=0;exitDy=0;" parent="1" source="_J6b6kvtOCf_ExvjXbg1-1" target="_J6b6kvtOCf_ExvjXbg1-3" edge="1">
          <mxGeometry width="50" height="50" relative="1" as="geometry">
            <mxPoint x="630" y="323" as="sourcePoint" />
            <mxPoint x="775" y="322.73" as="targetPoint" />
          </mxGeometry>
        </mxCell>
        <mxCell id="I9VFEbyjpKkMFN8h952U-143" value="Penjual" style="swimlane;whiteSpace=wrap;html=1;startSize=23;swimlaneFillColor=#FFE6E6;" vertex="1" parent="1">
          <mxGeometry x="20" y="1217" width="160" height="1780" as="geometry" />
        </mxCell>
        <mxCell id="I9VFEbyjpKkMFN8h952U-145" value="Memasukan barang&lt;br style=&quot;border-color: var(--border-color);&quot;&gt;untuk dijual" style="rounded=1;whiteSpace=wrap;html=1;" vertex="1" parent="I9VFEbyjpKkMFN8h952U-143">
          <mxGeometry x="20" y="220" width="120" height="40" as="geometry" />
        </mxCell>
        <mxCell id="I9VFEbyjpKkMFN8h952U-147" value="" style="edgeStyle=orthogonalEdgeStyle;rounded=0;orthogonalLoop=1;jettySize=auto;html=1;" edge="1" parent="I9VFEbyjpKkMFN8h952U-143" source="I9VFEbyjpKkMFN8h952U-148" target="I9VFEbyjpKkMFN8h952U-150">
          <mxGeometry relative="1" as="geometry" />
        </mxCell>
        <mxCell id="I9VFEbyjpKkMFN8h952U-148" value="Menerima notifikasi pemesanan barang" style="rounded=1;whiteSpace=wrap;html=1;" vertex="1" parent="I9VFEbyjpKkMFN8h952U-143">
          <mxGeometry x="20" y="650" width="120" height="60" as="geometry" />
        </mxCell>
        <mxCell id="I9VFEbyjpKkMFN8h952U-149" value="" style="edgeStyle=orthogonalEdgeStyle;rounded=0;orthogonalLoop=1;jettySize=auto;html=1;" edge="1" parent="I9VFEbyjpKkMFN8h952U-143" source="I9VFEbyjpKkMFN8h952U-150" target="I9VFEbyjpKkMFN8h952U-151">
          <mxGeometry relative="1" as="geometry" />
        </mxCell>
        <mxCell id="I9VFEbyjpKkMFN8h952U-150" value="Memroses &amp;amp; mengemas barang" style="rounded=1;whiteSpace=wrap;html=1;" vertex="1" parent="I9VFEbyjpKkMFN8h952U-143">
          <mxGeometry x="20" y="760" width="120" height="40" as="geometry" />
        </mxCell>
        <mxCell id="I9VFEbyjpKkMFN8h952U-151" value="Mengirim barang&lt;br&gt;pesanan ke kurir" style="rounded=1;whiteSpace=wrap;html=1;" vertex="1" parent="I9VFEbyjpKkMFN8h952U-143">
          <mxGeometry x="20" y="850" width="120" height="40" as="geometry" />
        </mxCell>
        <mxCell id="I9VFEbyjpKkMFN8h952U-152" value="" style="edgeStyle=orthogonalEdgeStyle;rounded=0;orthogonalLoop=1;jettySize=auto;html=1;" edge="1" parent="I9VFEbyjpKkMFN8h952U-143" source="I9VFEbyjpKkMFN8h952U-153" target="I9VFEbyjpKkMFN8h952U-154">
          <mxGeometry relative="1" as="geometry" />
        </mxCell>
        <mxCell id="I9VFEbyjpKkMFN8h952U-153" value="Menerima notifikasi pengajuan pengembalian barang" style="rounded=1;whiteSpace=wrap;html=1;" vertex="1" parent="I9VFEbyjpKkMFN8h952U-143">
          <mxGeometry x="20" y="1167" width="120" height="60" as="geometry" />
        </mxCell>
        <mxCell id="I9VFEbyjpKkMFN8h952U-154" value="menyetujui pengembalian barang dan dana" style="rounded=1;whiteSpace=wrap;html=1;" vertex="1" parent="I9VFEbyjpKkMFN8h952U-143">
          <mxGeometry x="20" y="1267" width="120" height="60" as="geometry" />
        </mxCell>
        <mxCell id="UR1YK07taxulq5GnLhqf-6" value="mengkonfirmasi barang telah dikembalikan" style="rounded=1;whiteSpace=wrap;html=1;" vertex="1" parent="I9VFEbyjpKkMFN8h952U-143">
          <mxGeometry x="20" y="1368.5" width="120" height="60" as="geometry" />
        </mxCell>
        <mxCell id="I9VFEbyjpKkMFN8h952U-155" value="Admin Kantor" style="swimlane;whiteSpace=wrap;html=1;swimlaneFillColor=#D9E8D3;" vertex="1" parent="1">
          <mxGeometry x="180" y="1217" width="160" height="1780" as="geometry" />
        </mxCell>
        <mxCell id="I9VFEbyjpKkMFN8h952U-156" value="Menyetujui pemasukan barang" style="rounded=1;whiteSpace=wrap;html=1;" vertex="1" parent="I9VFEbyjpKkMFN8h952U-155">
          <mxGeometry x="20" y="220" width="120" height="40" as="geometry" />
        </mxCell>
        <mxCell id="I9VFEbyjpKkMFN8h952U-157" value="Kurir" style="swimlane;whiteSpace=wrap;html=1;swimlaneFillColor=#CCE5FF;" vertex="1" parent="1">
          <mxGeometry x="340" y="1217" width="160" height="1780" as="geometry" />
        </mxCell>
        <mxCell id="I9VFEbyjpKkMFN8h952U-158" value="" style="edgeStyle=orthogonalEdgeStyle;rounded=0;orthogonalLoop=1;jettySize=auto;html=1;" edge="1" parent="I9VFEbyjpKkMFN8h952U-157" source="I9VFEbyjpKkMFN8h952U-159" target="I9VFEbyjpKkMFN8h952U-160">
          <mxGeometry relative="1" as="geometry" />
        </mxCell>
        <mxCell id="I9VFEbyjpKkMFN8h952U-159" value="Menerima barang pesanan" style="rounded=1;whiteSpace=wrap;html=1;" vertex="1" parent="I9VFEbyjpKkMFN8h952U-157">
          <mxGeometry x="20" y="760" width="120" height="50" as="geometry" />
        </mxCell>
        <mxCell id="I9VFEbyjpKkMFN8h952U-160" value="Mengantar barang pesanan&amp;nbsp;" style="rounded=1;whiteSpace=wrap;html=1;" vertex="1" parent="I9VFEbyjpKkMFN8h952U-157">
          <mxGeometry x="20" y="855" width="120" height="50" as="geometry" />
        </mxCell>
        <mxCell id="I9VFEbyjpKkMFN8h952U-161" value="" style="edgeStyle=orthogonalEdgeStyle;rounded=0;orthogonalLoop=1;jettySize=auto;html=1;" edge="1" parent="I9VFEbyjpKkMFN8h952U-157" source="I9VFEbyjpKkMFN8h952U-162" target="I9VFEbyjpKkMFN8h952U-163">
          <mxGeometry relative="1" as="geometry" />
        </mxCell>
        <mxCell id="I9VFEbyjpKkMFN8h952U-162" value="Mengambil barang&amp;nbsp;" style="rounded=1;whiteSpace=wrap;html=1;" vertex="1" parent="I9VFEbyjpKkMFN8h952U-157">
          <mxGeometry x="25" y="1275.5" width="120" height="43" as="geometry" />
        </mxCell>
        <mxCell id="I9VFEbyjpKkMFN8h952U-163" value="mengantar barang kembali" style="rounded=1;whiteSpace=wrap;html=1;" vertex="1" parent="I9VFEbyjpKkMFN8h952U-157">
          <mxGeometry x="25" y="1377" width="120" height="43" as="geometry" />
        </mxCell>
        <mxCell id="I9VFEbyjpKkMFN8h952U-164" value="Sistem" style="swimlane;whiteSpace=wrap;html=1;swimlaneFillColor=#FFF4C3;" vertex="1" parent="1">
          <mxGeometry x="500" y="1217" width="160" height="1780" as="geometry" />
        </mxCell>
        <mxCell id="I9VFEbyjpKkMFN8h952U-165" value="Menampilkan beberapa kategori tersedia" style="rounded=1;whiteSpace=wrap;html=1;" vertex="1" parent="I9VFEbyjpKkMFN8h952U-164">
          <mxGeometry x="20" y="210" width="120" height="60" as="geometry" />
        </mxCell>
        <mxCell id="I9VFEbyjpKkMFN8h952U-166" value="menampilkan barang-barang pada kategori yang dipilih" style="rounded=1;whiteSpace=wrap;html=1;" vertex="1" parent="I9VFEbyjpKkMFN8h952U-164">
          <mxGeometry x="20" y="327" width="120" height="60" as="geometry" />
        </mxCell>
        <mxCell id="I9VFEbyjpKkMFN8h952U-167" value="Menampilkan order summary" style="rounded=1;whiteSpace=wrap;html=1;" vertex="1" parent="I9VFEbyjpKkMFN8h952U-164">
          <mxGeometry x="20" y="417" width="120" height="60" as="geometry" />
        </mxCell>
        <mxCell id="I9VFEbyjpKkMFN8h952U-168" value="Menampilkan notifikasi pemesanan barang" style="rounded=1;whiteSpace=wrap;html=1;" vertex="1" parent="I9VFEbyjpKkMFN8h952U-164">
          <mxGeometry x="20" y="650" width="120" height="60" as="geometry" />
        </mxCell>
        <mxCell id="I9VFEbyjpKkMFN8h952U-169" value="" style="edgeStyle=orthogonalEdgeStyle;rounded=0;orthogonalLoop=1;jettySize=auto;html=1;" edge="1" parent="I9VFEbyjpKkMFN8h952U-164" target="I9VFEbyjpKkMFN8h952U-175">
          <mxGeometry relative="1" as="geometry">
            <mxPoint x="80.04347826086973" y="1682" as="sourcePoint" />
          </mxGeometry>
        </mxCell>
        <mxCell id="I9VFEbyjpKkMFN8h952U-170" value="Menerima &lt;br&gt;konfirmasi pesanan telah sampai/selesai" style="rounded=1;whiteSpace=wrap;html=1;" vertex="1" parent="I9VFEbyjpKkMFN8h952U-164">
          <mxGeometry x="20" y="1620" width="120" height="60" as="geometry" />
        </mxCell>
        <mxCell id="I9VFEbyjpKkMFN8h952U-171" value="Menampilkan notifikasi pengajuan pengembalian barang" style="rounded=1;whiteSpace=wrap;html=1;" vertex="1" parent="I9VFEbyjpKkMFN8h952U-164">
          <mxGeometry x="20" y="1167" width="120" height="60" as="geometry" />
        </mxCell>
        <mxCell id="I9VFEbyjpKkMFN8h952U-173" value="Menampilkan notifikasi pengembalian barang berhasil dilakukan" style="whiteSpace=wrap;html=1;rounded=1;" vertex="1" parent="I9VFEbyjpKkMFN8h952U-164">
          <mxGeometry x="20" y="1470" width="120" height="60" as="geometry" />
        </mxCell>
        <mxCell id="I9VFEbyjpKkMFN8h952U-175" value="" style="ellipse;html=1;shape=endState;fillColor=#000000;strokeColor=#ff0000;" vertex="1" parent="I9VFEbyjpKkMFN8h952U-164">
          <mxGeometry x="65" y="1712" width="30" height="30" as="geometry" />
        </mxCell>
        <mxCell id="I9VFEbyjpKkMFN8h952U-176" value="Pembeli" style="swimlane;whiteSpace=wrap;html=1;swimlaneFillColor=#E5CCFF;" vertex="1" parent="1">
          <mxGeometry x="660" y="1217" width="170" height="1780" as="geometry" />
        </mxCell>
        <mxCell id="I9VFEbyjpKkMFN8h952U-177" value="Memilih&lt;br style=&quot;border-color: var(--border-color);&quot;&gt;kategori barang yang diinginkan" style="rounded=1;whiteSpace=wrap;html=1;" vertex="1" parent="I9VFEbyjpKkMFN8h952U-176">
          <mxGeometry x="25" y="210" width="120" height="60" as="geometry" />
        </mxCell>
        <mxCell id="I9VFEbyjpKkMFN8h952U-178" value="" style="edgeStyle=orthogonalEdgeStyle;rounded=0;orthogonalLoop=1;jettySize=auto;html=1;" edge="1" parent="I9VFEbyjpKkMFN8h952U-176" source="I9VFEbyjpKkMFN8h952U-179" target="I9VFEbyjpKkMFN8h952U-180">
          <mxGeometry relative="1" as="geometry" />
        </mxCell>
        <mxCell id="I9VFEbyjpKkMFN8h952U-179" value="memilih barang yang diinginkan pada kategori yang dipilih" style="rounded=1;whiteSpace=wrap;html=1;" vertex="1" parent="I9VFEbyjpKkMFN8h952U-176">
          <mxGeometry x="20" y="327" width="120" height="60" as="geometry" />
        </mxCell>
        <mxCell id="I9VFEbyjpKkMFN8h952U-180" value="membeli barang" style="rounded=1;whiteSpace=wrap;html=1;" vertex="1" parent="I9VFEbyjpKkMFN8h952U-176">
          <mxGeometry x="20" y="427" width="120" height="40" as="geometry" />
        </mxCell>
        <mxCell id="I9VFEbyjpKkMFN8h952U-181" style="edgeStyle=orthogonalEdgeStyle;rounded=0;orthogonalLoop=1;jettySize=auto;html=1;entryX=0.5;entryY=0;entryDx=0;entryDy=0;exitX=0.5;exitY=1;exitDx=0;exitDy=0;" edge="1" parent="I9VFEbyjpKkMFN8h952U-176" source="I9VFEbyjpKkMFN8h952U-182" target="I9VFEbyjpKkMFN8h952U-184">
          <mxGeometry relative="1" as="geometry">
            <mxPoint x="80" y="620" as="sourcePoint" />
          </mxGeometry>
        </mxCell>
        <mxCell id="I9VFEbyjpKkMFN8h952U-182" value="Memeriksa order summary, mengisi alamat dan memilih metode pembayaran" style="rounded=1;whiteSpace=wrap;html=1;" vertex="1" parent="I9VFEbyjpKkMFN8h952U-176">
          <mxGeometry x="15" y="497" width="130" height="73" as="geometry" />
        </mxCell>
        <mxCell id="I9VFEbyjpKkMFN8h952U-183" style="edgeStyle=orthogonalEdgeStyle;rounded=0;orthogonalLoop=1;jettySize=auto;html=1;entryX=1;entryY=0.5;entryDx=0;entryDy=0;exitX=1;exitY=0.5;exitDx=0;exitDy=0;" edge="1" parent="I9VFEbyjpKkMFN8h952U-176" source="I9VFEbyjpKkMFN8h952U-184" target="I9VFEbyjpKkMFN8h952U-177">
          <mxGeometry relative="1" as="geometry">
            <Array as="points">
              <mxPoint x="160" y="680" />
              <mxPoint x="160" y="240" />
            </Array>
          </mxGeometry>
        </mxCell>
        <mxCell id="I9VFEbyjpKkMFN8h952U-184" value="" style="rhombus;whiteSpace=wrap;html=1;" vertex="1" parent="I9VFEbyjpKkMFN8h952U-176">
          <mxGeometry x="40" y="640" width="80" height="80" as="geometry" />
        </mxCell>
        <mxCell id="I9VFEbyjpKkMFN8h952U-185" value="&lt;font style=&quot;font-size: 9px;&quot;&gt;Lakukan checkout?&lt;/font&gt;" style="text;html=1;strokeColor=none;fillColor=default;align=center;verticalAlign=middle;whiteSpace=wrap;rounded=0;" vertex="1" parent="I9VFEbyjpKkMFN8h952U-176">
          <mxGeometry x="32.5" y="600" width="95" height="10" as="geometry" />
        </mxCell>
        <mxCell id="I9VFEbyjpKkMFN8h952U-186" value="&lt;font style=&quot;font-size: 9px;&quot;&gt;Ya&lt;/font&gt;" style="text;html=1;strokeColor=none;fillColor=default;align=center;verticalAlign=middle;whiteSpace=wrap;rounded=0;" vertex="1" parent="I9VFEbyjpKkMFN8h952U-176">
          <mxGeometry x="10" y="670" width="22.5" height="10" as="geometry" />
        </mxCell>
        <mxCell id="UR1YK07taxulq5GnLhqf-5" value="" style="edgeStyle=orthogonalEdgeStyle;rounded=0;orthogonalLoop=1;jettySize=auto;html=1;" edge="1" parent="I9VFEbyjpKkMFN8h952U-176" source="I9VFEbyjpKkMFN8h952U-188" target="I9VFEbyjpKkMFN8h952U-190">
          <mxGeometry relative="1" as="geometry" />
        </mxCell>
        <mxCell id="I9VFEbyjpKkMFN8h952U-188" value="Menerima barang pesanan" style="rounded=1;whiteSpace=wrap;html=1;" vertex="1" parent="I9VFEbyjpKkMFN8h952U-176">
          <mxGeometry x="25" y="850" width="120" height="60" as="geometry" />
        </mxCell>
        <mxCell id="I9VFEbyjpKkMFN8h952U-189" value="" style="edgeStyle=orthogonalEdgeStyle;rounded=0;orthogonalLoop=1;jettySize=auto;html=1;exitX=0.5;exitY=1;exitDx=0;exitDy=0;" edge="1" parent="I9VFEbyjpKkMFN8h952U-176" source="I9VFEbyjpKkMFN8h952U-190" target="I9VFEbyjpKkMFN8h952U-193">
          <mxGeometry relative="1" as="geometry">
            <mxPoint x="80" y="1057" as="sourcePoint" />
          </mxGeometry>
        </mxCell>
        <mxCell id="I9VFEbyjpKkMFN8h952U-190" value="Mengecek kesesuaian barang yang dipesan, apabila tidak sesuai dapat dilakukan pengembalian" style="rounded=1;whiteSpace=wrap;html=1;" vertex="1" parent="I9VFEbyjpKkMFN8h952U-176">
          <mxGeometry x="15" y="1013" width="140" height="80" as="geometry" />
        </mxCell>
        <mxCell id="I9VFEbyjpKkMFN8h952U-191" value="&lt;font style=&quot;font-size: 9px;&quot;&gt;Tidak&lt;/font&gt;" style="text;html=1;strokeColor=none;fillColor=default;align=center;verticalAlign=middle;whiteSpace=wrap;rounded=0;" vertex="1" parent="I9VFEbyjpKkMFN8h952U-176">
          <mxGeometry x="127.5" y="670" width="22.5" height="10" as="geometry" />
        </mxCell>
        <mxCell id="I9VFEbyjpKkMFN8h952U-192" value="" style="edgeStyle=orthogonalEdgeStyle;rounded=0;orthogonalLoop=1;jettySize=auto;html=1;exitX=1;exitY=0.5;exitDx=0;exitDy=0;entryX=1;entryY=0.5;entryDx=0;entryDy=0;" edge="1" parent="I9VFEbyjpKkMFN8h952U-176" source="I9VFEbyjpKkMFN8h952U-193" target="I9VFEbyjpKkMFN8h952U-195">
          <mxGeometry relative="1" as="geometry">
            <Array as="points">
              <mxPoint x="160" y="1197" />
              <mxPoint x="160" y="1652" />
            </Array>
          </mxGeometry>
        </mxCell>
        <mxCell id="I9VFEbyjpKkMFN8h952U-193" value="" style="rhombus;whiteSpace=wrap;html=1;" vertex="1" parent="I9VFEbyjpKkMFN8h952U-176">
          <mxGeometry x="45" y="1157" width="80" height="80" as="geometry" />
        </mxCell>
        <mxCell id="I9VFEbyjpKkMFN8h952U-194" value="&lt;font style=&quot;font-size: 8px;&quot;&gt;lakukan pengembalian?&lt;/font&gt;" style="text;html=1;strokeColor=none;fillColor=default;align=center;verticalAlign=middle;whiteSpace=wrap;rounded=0;" vertex="1" parent="I9VFEbyjpKkMFN8h952U-176">
          <mxGeometry x="35" y="1113" width="100" height="10" as="geometry" />
        </mxCell>
        <mxCell id="I9VFEbyjpKkMFN8h952U-195" value="Mengonfirmasi pesanan &lt;br&gt;telah sampai/selesai" style="rounded=1;whiteSpace=wrap;html=1;" vertex="1" parent="I9VFEbyjpKkMFN8h952U-176">
          <mxGeometry x="20" y="1622" width="120" height="58" as="geometry" />
        </mxCell>
        <mxCell id="I9VFEbyjpKkMFN8h952U-196" value="&lt;font style=&quot;font-size: 9px;&quot;&gt;Ya&lt;/font&gt;" style="text;html=1;strokeColor=none;fillColor=default;align=center;verticalAlign=middle;whiteSpace=wrap;rounded=0;" vertex="1" parent="I9VFEbyjpKkMFN8h952U-176">
          <mxGeometry x="10" y="1184" width="22.5" height="10" as="geometry" />
        </mxCell>
        <mxCell id="I9VFEbyjpKkMFN8h952U-197" value="&lt;font style=&quot;font-size: 9px;&quot;&gt;Tidak&lt;/font&gt;" style="text;html=1;strokeColor=none;fillColor=default;align=center;verticalAlign=middle;whiteSpace=wrap;rounded=0;" vertex="1" parent="I9VFEbyjpKkMFN8h952U-176">
          <mxGeometry x="132.5" y="1184" width="22.5" height="10" as="geometry" />
        </mxCell>
        <mxCell id="0P5sAnl20cGsUA7zE3eK-1" value="" style="ellipse;html=1;shape=startState;fillColor=#000000;strokeColor=#ff0000;" vertex="1" parent="I9VFEbyjpKkMFN8h952U-176">
          <mxGeometry x="70" y="50" width="30" height="30" as="geometry" />
        </mxCell>
        <mxCell id="0P5sAnl20cGsUA7zE3eK-2" value="" style="edgeStyle=orthogonalEdgeStyle;html=1;verticalAlign=bottom;endArrow=classicThin;endSize=8;strokeColor=#000000;rounded=0;entryX=0.5;entryY=0;entryDx=0;entryDy=0;endFill=1;" edge="1" source="0P5sAnl20cGsUA7zE3eK-1" parent="I9VFEbyjpKkMFN8h952U-176" target="0P5sAnl20cGsUA7zE3eK-3">
          <mxGeometry relative="1" as="geometry">
            <mxPoint x="85" y="140" as="targetPoint" />
          </mxGeometry>
        </mxCell>
        <mxCell id="0P5sAnl20cGsUA7zE3eK-4" style="edgeStyle=orthogonalEdgeStyle;rounded=0;orthogonalLoop=1;jettySize=auto;html=1;entryX=0.5;entryY=0;entryDx=0;entryDy=0;" edge="1" parent="I9VFEbyjpKkMFN8h952U-176" source="0P5sAnl20cGsUA7zE3eK-3" target="I9VFEbyjpKkMFN8h952U-177">
          <mxGeometry relative="1" as="geometry" />
        </mxCell>
        <mxCell id="0P5sAnl20cGsUA7zE3eK-3" value="Membuat Akun" style="rounded=1;whiteSpace=wrap;html=1;" vertex="1" parent="I9VFEbyjpKkMFN8h952U-176">
          <mxGeometry x="25" y="120" width="120" height="40" as="geometry" />
        </mxCell>
        <mxCell id="UR1YK07taxulq5GnLhqf-12" value="" style="edgeStyle=orthogonalEdgeStyle;rounded=0;orthogonalLoop=1;jettySize=auto;html=1;entryX=0.5;entryY=0;entryDx=0;entryDy=0;" edge="1" parent="I9VFEbyjpKkMFN8h952U-176" source="UR1YK07taxulq5GnLhqf-9" target="I9VFEbyjpKkMFN8h952U-195">
          <mxGeometry relative="1" as="geometry">
            <mxPoint x="87.49999999999977" y="1570.0000000000005" as="targetPoint" />
          </mxGeometry>
        </mxCell>
        <mxCell id="UR1YK07taxulq5GnLhqf-9" value="Menerima pengembalian dana (apabila memilih metode transfer)" style="rounded=1;whiteSpace=wrap;html=1;" vertex="1" parent="I9VFEbyjpKkMFN8h952U-176">
          <mxGeometry x="20" y="1470" width="120" height="60" as="geometry" />
        </mxCell>
        <mxCell id="I9VFEbyjpKkMFN8h952U-198" value="" style="edgeStyle=orthogonalEdgeStyle;rounded=0;orthogonalLoop=1;jettySize=auto;html=1;" edge="1" parent="1" source="I9VFEbyjpKkMFN8h952U-145" target="I9VFEbyjpKkMFN8h952U-156">
          <mxGeometry relative="1" as="geometry" />
        </mxCell>
        <mxCell id="I9VFEbyjpKkMFN8h952U-199" style="edgeStyle=orthogonalEdgeStyle;rounded=0;orthogonalLoop=1;jettySize=auto;html=1;" edge="1" parent="1" source="I9VFEbyjpKkMFN8h952U-156" target="I9VFEbyjpKkMFN8h952U-165">
          <mxGeometry relative="1" as="geometry" />
        </mxCell>
        <mxCell id="I9VFEbyjpKkMFN8h952U-200" style="edgeStyle=orthogonalEdgeStyle;rounded=0;orthogonalLoop=1;jettySize=auto;html=1;" edge="1" parent="1" source="I9VFEbyjpKkMFN8h952U-165" target="I9VFEbyjpKkMFN8h952U-177">
          <mxGeometry relative="1" as="geometry" />
        </mxCell>
        <mxCell id="I9VFEbyjpKkMFN8h952U-201" style="edgeStyle=orthogonalEdgeStyle;rounded=0;orthogonalLoop=1;jettySize=auto;html=1;entryX=0;entryY=0.5;entryDx=0;entryDy=0;" edge="1" parent="1" source="I9VFEbyjpKkMFN8h952U-166" target="I9VFEbyjpKkMFN8h952U-179">
          <mxGeometry relative="1" as="geometry" />
        </mxCell>
        <mxCell id="I9VFEbyjpKkMFN8h952U-202" value="" style="edgeStyle=orthogonalEdgeStyle;rounded=0;orthogonalLoop=1;jettySize=auto;html=1;" edge="1" parent="1" source="I9VFEbyjpKkMFN8h952U-180" target="I9VFEbyjpKkMFN8h952U-167">
          <mxGeometry relative="1" as="geometry" />
        </mxCell>
        <mxCell id="I9VFEbyjpKkMFN8h952U-203" value="" style="edgeStyle=orthogonalEdgeStyle;rounded=0;orthogonalLoop=1;jettySize=auto;html=1;" edge="1" parent="1" source="I9VFEbyjpKkMFN8h952U-184" target="I9VFEbyjpKkMFN8h952U-168">
          <mxGeometry relative="1" as="geometry" />
        </mxCell>
        <mxCell id="I9VFEbyjpKkMFN8h952U-204" style="edgeStyle=orthogonalEdgeStyle;rounded=0;orthogonalLoop=1;jettySize=auto;html=1;entryX=1;entryY=0.5;entryDx=0;entryDy=0;" edge="1" parent="1" source="I9VFEbyjpKkMFN8h952U-168" target="I9VFEbyjpKkMFN8h952U-148">
          <mxGeometry relative="1" as="geometry" />
        </mxCell>
        <mxCell id="I9VFEbyjpKkMFN8h952U-205" style="edgeStyle=orthogonalEdgeStyle;rounded=0;orthogonalLoop=1;jettySize=auto;html=1;entryX=0;entryY=0.5;entryDx=0;entryDy=0;" edge="1" parent="1" source="I9VFEbyjpKkMFN8h952U-151" target="I9VFEbyjpKkMFN8h952U-159">
          <mxGeometry relative="1" as="geometry" />
        </mxCell>
        <mxCell id="I9VFEbyjpKkMFN8h952U-206" style="edgeStyle=orthogonalEdgeStyle;rounded=0;orthogonalLoop=1;jettySize=auto;html=1;entryX=0;entryY=0.5;entryDx=0;entryDy=0;" edge="1" parent="1" source="I9VFEbyjpKkMFN8h952U-160" target="I9VFEbyjpKkMFN8h952U-188">
          <mxGeometry relative="1" as="geometry" />
        </mxCell>
        <mxCell id="I9VFEbyjpKkMFN8h952U-207" value="" style="edgeStyle=orthogonalEdgeStyle;rounded=0;orthogonalLoop=1;jettySize=auto;html=1;entryX=0.5;entryY=0;entryDx=0;entryDy=0;" edge="1" parent="1" source="I9VFEbyjpKkMFN8h952U-177" target="I9VFEbyjpKkMFN8h952U-166">
          <mxGeometry relative="1" as="geometry">
            <Array as="points">
              <mxPoint x="740" y="1514" />
              <mxPoint x="580" y="1514" />
            </Array>
          </mxGeometry>
        </mxCell>
        <mxCell id="I9VFEbyjpKkMFN8h952U-208" style="edgeStyle=orthogonalEdgeStyle;rounded=0;orthogonalLoop=1;jettySize=auto;html=1;entryX=0;entryY=0.5;entryDx=0;entryDy=0;exitX=0.5;exitY=1;exitDx=0;exitDy=0;" edge="1" parent="1" source="I9VFEbyjpKkMFN8h952U-167" target="I9VFEbyjpKkMFN8h952U-182">
          <mxGeometry relative="1" as="geometry">
            <mxPoint x="620.0000000000002" y="1764" as="targetPoint" />
          </mxGeometry>
        </mxCell>
        <mxCell id="I9VFEbyjpKkMFN8h952U-210" value="" style="edgeStyle=orthogonalEdgeStyle;rounded=0;orthogonalLoop=1;jettySize=auto;html=1;" edge="1" parent="1" source="I9VFEbyjpKkMFN8h952U-193" target="I9VFEbyjpKkMFN8h952U-171">
          <mxGeometry relative="1" as="geometry" />
        </mxCell>
        <mxCell id="I9VFEbyjpKkMFN8h952U-211" style="edgeStyle=orthogonalEdgeStyle;rounded=0;orthogonalLoop=1;jettySize=auto;html=1;entryX=1;entryY=0.5;entryDx=0;entryDy=0;" edge="1" parent="1" source="I9VFEbyjpKkMFN8h952U-171" target="I9VFEbyjpKkMFN8h952U-153">
          <mxGeometry relative="1" as="geometry" />
        </mxCell>
        <mxCell id="I9VFEbyjpKkMFN8h952U-212" style="edgeStyle=orthogonalEdgeStyle;rounded=0;orthogonalLoop=1;jettySize=auto;html=1;" edge="1" parent="1" source="I9VFEbyjpKkMFN8h952U-154" target="I9VFEbyjpKkMFN8h952U-162">
          <mxGeometry relative="1" as="geometry" />
        </mxCell>
        <mxCell id="UR1YK07taxulq5GnLhqf-7" style="edgeStyle=orthogonalEdgeStyle;rounded=0;orthogonalLoop=1;jettySize=auto;html=1;" edge="1" parent="1" source="I9VFEbyjpKkMFN8h952U-163" target="UR1YK07taxulq5GnLhqf-6">
          <mxGeometry relative="1" as="geometry" />
        </mxCell>
        <mxCell id="UR1YK07taxulq5GnLhqf-8" style="edgeStyle=orthogonalEdgeStyle;rounded=0;orthogonalLoop=1;jettySize=auto;html=1;entryX=0;entryY=0.5;entryDx=0;entryDy=0;" edge="1" parent="1" source="UR1YK07taxulq5GnLhqf-6" target="I9VFEbyjpKkMFN8h952U-173">
          <mxGeometry relative="1" as="geometry">
            <Array as="points">
              <mxPoint x="100" y="2717" />
            </Array>
          </mxGeometry>
        </mxCell>
        <mxCell id="UR1YK07taxulq5GnLhqf-10" value="" style="edgeStyle=orthogonalEdgeStyle;rounded=0;orthogonalLoop=1;jettySize=auto;html=1;" edge="1" parent="1" source="I9VFEbyjpKkMFN8h952U-173" target="UR1YK07taxulq5GnLhqf-9">
          <mxGeometry relative="1" as="geometry" />
        </mxCell>
        <mxCell id="UR1YK07taxulq5GnLhqf-13" value="" style="edgeStyle=orthogonalEdgeStyle;rounded=0;orthogonalLoop=1;jettySize=auto;html=1;" edge="1" parent="1" source="I9VFEbyjpKkMFN8h952U-195" target="I9VFEbyjpKkMFN8h952U-170">
          <mxGeometry relative="1" as="geometry" />
        </mxCell>
        <mxCell id="WkxhsKUeWTfdr2WXUU0A-1" value="" style="endArrow=none;html=1;rounded=0;entryX=0;entryY=0.5;entryDx=0;entryDy=0;exitX=0.5;exitY=0.5;exitDx=0;exitDy=0;exitPerimeter=0;" edge="1" parent="1" source="j7uFFj0VMb9B0_QQSw2X-2" target="TZj0bOSMbORoZklCW9Lz-1">
          <mxGeometry width="50" height="50" relative="1" as="geometry">
            <mxPoint x="55" y="266" as="sourcePoint" />
            <mxPoint x="190" y="276" as="targetPoint" />
          </mxGeometry>
        </mxCell>
        <mxCell id="BSiaUf2qVjrhFa25R_2A-2" value="" style="endArrow=none;html=1;rounded=0;entryX=0.5;entryY=0.5;entryDx=0;entryDy=0;entryPerimeter=0;exitX=1;exitY=0.5;exitDx=0;exitDy=0;" edge="1" parent="1" source="BSiaUf2qVjrhFa25R_2A-1" target="_J6b6kvtOCf_ExvjXbg1-3">
          <mxGeometry width="50" height="50" relative="1" as="geometry">
            <mxPoint x="660" y="339" as="sourcePoint" />
            <mxPoint x="815" y="386" as="targetPoint" />
          </mxGeometry>
        </mxCell>
      </root>
    </mxGraphModel>
  </diagram>
</mxfile>
